HIERARCHY
ROOT Hips
{
	OFFSET 0.000000 0.000000 0.000000 
	CHANNELS 6 Xposition Yposition Zposition Zrotation Yrotation Xrotation
	JOINT LeftUpLeg
	{
		OFFSET 1.363060 -1.794630 0.839290 
		CHANNELS 3 Zrotation Yrotation Xrotation
		JOINT LeftLeg
		{
			OFFSET 2.448110 -6.726130 0.000000 
			CHANNELS 3 Zrotation Yrotation Xrotation
			JOINT LeftFoot
			{
				OFFSET 2.562200 -7.039590 0.000000 
				CHANNELS 3 Zrotation Yrotation Xrotation
				JOINT LeftToeBase
				{
					OFFSET 0.157640 -0.433110 2.322550 
					CHANNELS 3 Zrotation Yrotation Xrotation
					End Site
					{
						OFFSET 0.000000 0.000000 0.000000 
					}
				}
			}
		}
	}
	JOINT RightUpLeg
	{
		OFFSET -1.305520 -1.794630 0.839290 
		CHANNELS 3 Zrotation Yrotation Xrotation
		JOINT RightLeg
		{
			OFFSET -2.542530 -6.985550 0.000000 
			CHANNELS 3 Zrotation Yrotation Xrotation
			JOINT RightFoot
			{
				OFFSET -2.568260 -7.056230 0.000000 
				CHANNELS 3 Zrotation Yrotation Xrotation
				JOINT RightToeBase
				{
					OFFSET -0.164730 -0.452590 2.363150 
					CHANNELS 3 Zrotation Yrotation Xrotation
					End Site
					{
						OFFSET 0.000000 0.000000 0.000000 
					}
				}
			}
		}
	}
	JOINT Spine
	{
		OFFSET 0.028270 2.035590 -0.193380 
		CHANNELS 3 Zrotation Yrotation Xrotation
		JOINT Spine1
		{
			OFFSET 0.056720 2.048850 -0.042750 
			CHANNELS 3 Zrotation Yrotation Xrotation
			JOINT Neck1
			{
				OFFSET -0.054170 1.746240 0.172020 
				CHANNELS 3 Zrotation Yrotation Xrotation
				JOINT Head
				{
					OFFSET 0.104070 1.761360 -0.123970 
					CHANNELS 3 Zrotation Yrotation Xrotation
					End Site
					{
						OFFSET 0.000000 0.000000 0.000000 
					}
				}
			}
			JOINT LeftArm
			{
				OFFSET 3.362410 1.200890 -0.311210 
				CHANNELS 3 Zrotation Yrotation Xrotation
				JOINT LeftForeArm
				{
					OFFSET 4.983000 -0.000000 -0.000000 
					CHANNELS 3 Zrotation Yrotation Xrotation
					JOINT LeftHand
					{
						OFFSET 3.483560 -0.000000 -0.000000 
						CHANNELS 3 Zrotation Yrotation Xrotation
						JOINT LeftHandIndex1
						{
							OFFSET 0.715260 -0.000000 -0.000000 
							CHANNELS 3 Zrotation Yrotation Xrotation
							End Site
							{
								OFFSET 0.000000 0.000000 0.000000 
							}
						}
					}
				}
			}
			JOINT RightArm
			{
				OFFSET -3.136600 1.374050 -0.404650 
				CHANNELS 3 Zrotation Yrotation Xrotation
				JOINT RightForeArm
				{
					OFFSET -5.241900 -0.000000 -0.000000 
					CHANNELS 3 Zrotation Yrotation Xrotation
					JOINT RightHand
					{
						OFFSET -3.444170 -0.000000 -0.000000 
						CHANNELS 3 Zrotation Yrotation Xrotation
						JOINT RightHandIndex1
						{
							OFFSET -0.622530 -0.000000 -0.000000 
							CHANNELS 3 Zrotation Yrotation Xrotation
							End Site
							{
								OFFSET 0.000000 0.000000 0.000000 
							}
						}
					}
				}
			}
		}
	}
}
MOTION
Frames: 7
Frame Time: 0.041667
23.673526 17.159294 -29.613857 1.692500 -29.300361 16.301244 -15.163044 -13.818804 -32.425989 0.812702 13.747206 35.950798 -1.922427 9.658233 -7.471545 1.465200 -7.649700 -21.655100 15.760954 23.407584 -37.520574 -1.403309 -15.687891 38.147283 3.923393 -21.184021 -9.428577 -0.009600 0.634100 -1.742500 1.412279 0.128406 -1.184355 -1.116162 0.337436 -3.972297 -1.845761 16.786732 -8.667718 -2.273900 7.480200 -4.635400 -90.843636 -14.460034 36.158459 27.886220 -30.367387 -9.740005 -1.569845 -1.748681 28.041489 -7.125000 0.000000 0.000000 79.522316 21.275059 46.908966 -23.377775 23.818571 -5.720122 -0.794839 -1.465600 -10.879971 7.125000 0.000000 0.000000 
23.675078 17.151423 -29.623834 1.393527 -29.321902 16.532645 -14.866935 -13.729515 -32.679566 0.879256 13.848822 36.174739 -1.908674 9.608197 -7.402023 1.472300 -7.667600 -21.708800 16.005144 23.590022 -37.603586 -1.371581 -15.671760 38.062101 3.913130 -21.187198 -9.342610 -0.006100 0.502400 -1.380400 1.419353 0.209922 -1.157088 -1.158758 0.379797 -3.864463 -1.752081 16.876742 -8.711571 -2.205300 7.540400 -4.742200 -90.784087 -14.473259 36.231170 28.148169 -30.605501 -9.878507 -1.536806 -1.739780 27.896505 -7.125000 0.000000 0.000000 79.629280 21.222673 46.674825 -23.561415 24.017043 -5.833631 -0.864351 -1.445572 -10.846923 7.125000 0.000000 0.000000 
23.676741 17.150979 -29.630042 1.143131 -29.282968 16.639513 -14.615052 -13.727311 -32.682825 0.898140 13.867133 36.217490 -1.874465 9.493053 -7.433597 1.446500 -7.602800 -21.514100 16.243697 23.676524 -37.550843 -1.349041 -15.645907 38.007965 3.911026 -21.206851 -9.410717 -0.007600 0.562100 -1.544500 1.402429 0.200326 -1.109915 -1.373794 0.372714 -3.691214 -1.685566 17.002210 -8.693462 -2.176900 7.595000 -4.724200 -90.544657 -14.617242 36.188616 28.379417 -30.806351 -10.006927 -1.512750 -1.741255 27.676767 -7.125000 0.000000 0.000000 79.865987 21.331498 46.725936 -23.737727 24.213654 -5.924645 -0.876539 -1.440683 -10.778316 7.125000 0.000000 0.000000 
23.678958 17.153862 -29.634920 1.090875 -29.216036 16.600939 -14.573322 -13.755209 -32.650269 0.917037 13.888459 36.295299 -1.840545 9.404179 -7.609437 1.409300 -7.508600 -21.231300 16.333298 23.624247 -37.448012 -1.339309 -15.621546 37.981076 3.900353 -21.155875 -9.477870 -0.010700 0.668200 -1.836200 1.383117 0.153819 -1.055094 -1.553232 0.347446 -3.525886 -1.762930 17.105094 -8.752632 -2.257300 7.612300 -4.709900 -90.291030 -14.850217 36.146970 28.586599 -30.987389 -10.132031 -1.497364 -1.752774 27.473530 -7.125000 0.000000 0.000000 79.986591 21.437090 46.949861 -23.931554 24.410840 -5.987197 -0.858768 -1.433491 -10.911486 7.125000 0.000000 0.000000 
23.681730 17.152864 -29.642569 1.170038 -29.172093 16.578711 -14.639307 -13.772107 -32.723005 0.920513 13.904574 36.320651 -1.852367 9.446456 -7.587412 1.414300 -7.521500 -21.269900 16.250101 23.593607 -37.502936 -1.340894 -15.631458 37.986197 3.909090 -21.190441 -9.511749 -0.006300 0.513100 -1.410000 1.394371 0.198595 -1.056104 -1.461517 0.370033 -3.569102 -1.804132 17.097383 -8.769425 -2.274000 7.611900 -4.730100 -90.418259 -14.905081 36.250493 28.769861 -31.155522 -10.244060 -1.479137 -1.766397 27.431512 -7.125000 0.000000 0.000000 79.885130 21.219690 47.045094 -24.163883 24.650026 -6.065211 -0.819163 -1.431936 -11.038477 7.125000 0.000000 0.000000 
23.684612 17.147875 -29.653100 1.165078 -29.099690 16.595195 -14.602024 -13.777016 -32.790817 0.918005 13.905840 36.299904 -1.812502 9.301291 -7.478284 1.336400 -7.320000 -20.666900 16.252391 23.584573 -37.599154 -1.355773 -15.661888 38.046309 3.935977 -21.315747 -9.528756 -0.004000 0.407000 -1.118200 1.423937 0.270350 -1.070678 -1.277116 0.408172 -3.664491 -1.673568 17.061964 -8.740438 -2.129400 7.640100 -4.764700 -90.745271 -14.892448 36.380368 28.911544 -31.279569 -10.323579 -1.468428 -1.756227 27.435574 -7.125000 0.000000 0.000000 79.751610 20.928377 47.010659 -24.453693 24.953946 -6.187408 -0.778961 -1.436160 -11.092143 7.125000 0.000000 0.000000 
23.686718 17.142443 -29.661858 1.239497 -29.043943 16.482631 -14.665456 -13.774336 -32.738188 0.915606 13.893801 36.285218 -1.804597 9.262181 -7.389778 1.312700 -7.257100 -20.479500 16.214097 23.551295 -37.582485 -1.383172 -15.686855 38.137059 3.942238 -21.336536 -9.539822 -0.004600 0.437300 -1.201500 1.432591 0.308343 -1.048340 -1.162568 0.427147 -3.628469 -1.540031 17.037620 -8.706447 -1.986000 7.659000 -4.714600 -90.899970 -14.984707 36.449845 29.038763 -31.377395 -10.385150 -1.467166 -1.714586 27.441931 -7.125000 0.000000 0.000000 79.651620 20.818347 46.881174 -24.756091 25.256978 -6.334184 -0.770022 -1.437298 -11.004659 7.125000 0.000000 0.000000 
